<svg width="133" height="48" viewBox="0 0 133 48" fill="none" xmlns="http://www.w3.org/2000/svg">
<g style="mix-blend-mode:luminosity">
<path d="M14.635 6H0V41L14.635 6Z" fill="#FA0C00"/>
<path d="M24.9316 6H39.5476V41L24.9316 6Z" fill="#FA0C00"/>
<path d="M19.7842 18.8999L29.0991 41.0001H22.9876L20.2037 33.9639H13.3867L19.7842 18.8999Z" fill="#FA0C00"/>
<path d="M63.4236 28.2578L65.1493 33.206C65.2065 33.33 65.2923 33.3872 65.4448 33.3872H68.7627C68.9439 33.3872 68.9725 33.3014 68.9439 33.1202L62.0888 14.0804C62.0602 13.9279 62.0316 13.8993 61.879 13.8993H57.7603C57.6459 13.8993 57.5791 13.9851 57.5791 14.109C57.5219 15.1101 57.4361 15.4152 57.3122 15.7108L51.2007 33.0916C51.1721 33.3014 51.2389 33.3872 51.4105 33.3872H54.3756C54.5568 33.3872 54.6426 33.33 54.7093 33.1488L56.3397 28.2578H63.4236ZM57.2836 25.0257C58.1798 22.318 59.362 18.8475 59.8387 16.8644H59.8673C60.4584 18.9429 61.8504 23.0616 62.4797 25.0257H57.2836Z" fill="#FA0C00"/>
<path d="M77.7572 33.6828C79.5401 33.6828 81.4374 33.3587 83.3633 32.5292C83.5158 32.472 83.5444 32.4052 83.5444 32.2622C83.4872 31.7283 83.4205 30.956 83.4205 30.3649V12.4407C83.4205 12.3262 83.4205 12.269 83.2775 12.269H80.0454C79.9215 12.269 79.8643 12.3262 79.8643 12.4788V18.5521C79.3589 18.4949 79.0062 18.4663 78.5867 18.4663C73.3715 18.4663 70.168 21.9081 70.168 26.208C70.168 31.1944 73.4573 33.6828 77.7572 33.6828ZM79.8642 30.3649C79.3303 30.5365 78.7392 30.6033 78.1386 30.6033C75.7741 30.6033 73.8386 29.2685 73.8386 26.0269C73.8386 23.1571 75.8313 21.46 78.4723 21.46C79.0062 21.46 79.4733 21.5172 79.8642 21.6698V30.3649Z" fill="#FA0C00"/>
<path d="M93.8553 18.4663C89.4028 18.4663 86.6475 21.8795 86.6475 26.0937C86.6475 29.8597 88.8403 33.6829 93.7886 33.6829C97.9741 33.6829 100.911 30.6033 100.911 25.9983C100.911 21.9368 98.4222 18.4663 93.8553 18.4663ZM93.6742 21.46C96.1912 21.46 97.259 23.6243 97.259 26.0937C97.259 29.1446 95.6859 30.6605 93.8553 30.6605C91.5957 30.6605 90.2609 28.7632 90.2609 26.0269C90.2609 23.2143 91.6815 21.46 93.6742 21.46Z" fill="#FA0C00"/>
<path d="M104.252 12.2689C104.128 12.2689 104.042 12.3261 104.042 12.4787V32.7674C104.042 32.8532 104.128 33.0058 104.252 33.0344C105.672 33.4729 107.16 33.6827 108.695 33.6827C113.09 33.6827 117.361 30.9559 117.361 25.4642C117.361 21.4885 114.634 18.4661 110.363 18.4661C109.381 18.4661 108.466 18.6187 107.665 18.8856L107.627 12.5073C107.627 12.2975 107.57 12.2689 107.36 12.2689H104.252ZM113.71 25.8265C113.71 29.1158 111.46 30.6604 109.028 30.6604C108.523 30.6604 108.075 30.6318 107.665 30.5078V21.8508C108.132 21.6696 108.695 21.5171 109.734 21.5171C112.079 21.5171 113.71 23.0044 113.71 25.8265Z" fill="#FA0C00"/>
<path d="M129.423 26.8944C130.872 26.8944 132.064 26.8658 132.474 26.7705C132.627 26.7419 132.684 26.6847 132.713 26.5607C132.798 26.2365 132.836 25.5596 132.836 24.7301C132.836 21.908 131.139 18.4662 126.754 18.4662C122.273 18.4662 119.784 22.1178 119.784 26.2365C119.784 29.8881 121.71 33.6828 127.106 33.6828C129.128 33.6828 130.434 33.3586 131.559 32.8247C131.673 32.7675 131.73 32.6721 131.73 32.5005V30.0312C131.73 29.8881 131.645 29.8595 131.559 29.9167C130.434 30.3935 129.213 30.6318 127.879 30.6318C124.856 30.6318 123.483 28.9633 123.398 26.8944H129.423ZM123.398 24.3392C123.636 22.8901 124.551 21.3169 126.601 21.3169C128.861 21.3169 129.452 23.2142 129.452 24.0723C129.452 24.1009 129.452 24.2248 129.452 24.3106C129.328 24.3392 128.947 24.3392 127.821 24.3392H123.398Z" fill="#FA0C00"/>
</g>
</svg>
