<svg width="178" height="48" viewBox="0 0 178 48" fill="none" xmlns="http://www.w3.org/2000/svg">
<g style="mix-blend-mode:luminosity">
<path d="M74.5923 28.951V21.8439C74.5923 21.6584 74.4679 21.5349 74.2814 21.5349H71.9179V18.7537H74.2814C74.4679 18.7537 74.5923 18.6301 74.5923 18.4447V13.9951H77.9508V18.4447C77.9508 18.6301 78.0752 18.7537 78.2619 18.7537H81.5582V21.5349H78.2619C78.0752 21.5349 77.9508 21.6584 77.9508 21.8439V28.1477C77.9508 31.1142 79.0082 31.3613 80.3765 31.3613C80.874 31.3613 81.6203 31.2995 82.0557 31.2377V34.1423C81.496 34.2042 80.5631 34.3278 79.5057 34.3278C78.1996 34.266 74.5923 34.266 74.5923 28.951ZM165.895 30.6815L168.631 29.26C169.253 30.6815 170.435 31.6085 171.803 31.6085C172.861 31.6085 174.042 31.1758 174.042 29.878C174.042 29.0128 173.483 28.5184 172.176 28.0859L170.311 27.4679C167.698 26.6644 166.392 25.1812 166.392 23.0799C166.392 20.4224 168.631 18.4447 171.679 18.4447C174.104 18.4447 176.157 19.7426 177.152 21.782L174.415 23.2652C173.793 21.9674 172.798 21.2259 171.617 21.2259C170.435 21.2259 169.626 21.8439 169.626 22.7709C169.626 23.5742 170.248 24.1924 171.492 24.563L173.358 25.1812C176.095 26.0464 177.401 27.5295 177.401 29.569C177.401 32.7828 174.602 34.4515 171.803 34.4515C169.004 34.3897 166.765 32.9682 165.895 30.6815ZM155.57 27.9004C155.508 27.9622 155.446 28.024 155.446 28.0859V34.0188H152.025V12.0791H155.446V24.0687C155.446 24.1924 155.508 24.3159 155.632 24.3159C155.757 24.3777 155.881 24.3159 155.944 24.254L161.479 18.6919H165.646L159.178 25.1812C159.053 25.3047 159.053 25.4284 159.178 25.5519L166.206 34.0188H162.039L156.628 27.3442C156.565 27.2824 156.503 27.2205 156.441 27.2205C156.379 27.2205 156.317 27.2205 156.254 27.2824L155.57 27.9004ZM150.346 20.7932L148.169 22.8327C146.925 21.9057 145.681 21.473 144.313 21.473C141.452 21.473 139.337 23.5742 139.337 26.4172C139.337 29.26 141.452 31.3613 144.313 31.3613C145.557 31.3613 146.863 30.9287 148.231 30.0017L150.159 32.0412C147.361 34.0807 145.868 34.4515 143.94 34.4515C141.639 34.4515 139.586 33.648 138.093 32.1647C136.663 30.7433 135.854 28.642 135.854 26.4172C135.854 21.782 139.275 18.3829 144.002 18.3829C145.557 18.3829 147.858 18.6301 150.346 20.7932ZM134.3 14.1804C134.3 15.2929 133.367 16.2199 132.247 16.2199C131.128 16.2199 130.195 15.2929 130.195 14.1804C130.195 13.0679 131.128 12.1409 132.247 12.1409C133.367 12.1409 134.3 13.0679 134.3 14.1804ZM133.989 34.0188H130.568V18.7537H133.989V34.0188ZM123.105 27.3442V34.0807H119.684V18.8156H123.042V20.6696C123.042 20.7932 123.105 20.9169 123.229 20.9786C123.353 21.0404 123.478 20.9786 123.54 20.855C124.411 19.4336 126.028 18.5066 127.769 18.5066C128.018 18.5066 128.205 18.5066 128.329 18.5684V22.0292C128.142 21.9674 127.831 21.9674 127.52 21.9674C124.784 21.9057 123.105 24.0069 123.105 27.3442ZM104.757 26.4172C104.757 23.636 106.872 21.473 109.608 21.473C112.345 21.473 114.459 23.636 114.459 26.4172C114.459 29.1982 112.345 31.3613 109.608 31.3613C106.872 31.3613 104.757 29.1982 104.757 26.4172ZM105.068 32.2265C105.13 32.2265 105.13 32.2265 105.192 32.2265C105.254 32.2265 105.379 32.2883 105.441 32.3502C106.623 33.7098 108.364 34.4515 110.355 34.4515C114.584 34.4515 117.818 30.9287 117.818 26.4172C117.818 24.1924 117.072 22.2147 115.641 20.6696C114.273 19.1864 112.345 18.3829 110.292 18.3829C108.364 18.3829 106.561 19.1864 105.379 20.6077C105.317 20.6696 105.192 20.7314 105.068 20.6696C104.943 20.6077 104.881 20.5461 104.881 20.4224V12.1409H101.461V34.0807H104.881V32.5355C104.881 32.3502 104.943 32.2883 105.068 32.2265ZM90.8874 31.3613C88.2131 31.3613 86.0362 29.1982 86.0362 26.4172C86.0362 23.636 88.1509 21.473 90.8874 21.473C93.624 21.473 95.7386 23.636 95.7386 26.4172C95.7386 29.1982 93.5618 31.3613 90.8874 31.3613ZM98.9106 34.0188V18.7537H95.5521V20.2987C95.5521 20.4224 95.4898 20.546 95.3655 20.546C95.2411 20.6077 95.1167 20.546 95.0544 20.4842C93.9351 19.1246 92.1935 18.3829 90.1411 18.3829C85.9118 18.3829 82.6777 21.9057 82.6777 26.4172C82.6777 30.9287 85.974 34.4515 90.1411 34.4515C92.0691 34.4515 93.8727 33.648 95.0544 32.2265C95.1167 32.103 95.2411 32.103 95.3655 32.1647C95.4898 32.2265 95.5521 32.2883 95.5521 32.412V34.0807H98.9106V34.0188ZM62.0911 31.3613C59.4167 31.3613 57.2399 29.1982 57.2399 26.4172C57.2399 23.636 59.3545 21.473 62.0911 21.473C64.7654 21.473 66.9424 23.636 66.9424 26.4172C66.9424 29.1982 64.7654 31.3613 62.0911 31.3613ZM70.1143 34.0188V18.7537H66.7557V20.2987C66.7557 20.4224 66.6936 20.546 66.5691 20.546C66.4448 20.6077 66.3204 20.546 66.2582 20.4842C65.1387 19.1246 63.3971 18.3829 61.3448 18.3829C57.1155 18.3829 53.8813 21.9057 53.8813 26.4172C53.8813 30.9287 57.1778 34.4515 61.3448 34.4515C63.2728 34.4515 65.0765 33.648 66.2582 32.2265C66.3204 32.103 66.4448 32.103 66.5691 32.1647C66.6936 32.2265 66.7557 32.2883 66.7557 32.412V34.0807H70.1143V34.0188ZM43.9302 31.3613C41.1936 31.3613 39.0789 29.1982 39.0789 26.4172C39.0789 23.636 41.1936 21.473 43.9302 21.473C46.6045 21.473 48.7814 23.636 48.7814 26.4172C48.7814 29.1982 46.6045 31.3613 43.9302 31.3613ZM51.9533 34.0188V12.1409H48.5326V20.3606C48.5326 20.4842 48.4704 20.6077 48.346 20.6077C48.2216 20.6696 48.0972 20.6077 48.035 20.546C46.8533 19.1864 45.1119 18.4447 43.1216 18.4447C38.8923 18.4447 35.6582 21.9674 35.6582 26.479C35.6582 28.7039 36.4045 30.6815 37.835 32.2265C39.2033 33.7098 41.1314 34.5132 43.1838 34.5132C45.1119 34.5132 46.9155 33.7098 48.0972 32.2883C48.1594 32.2265 48.2838 32.1647 48.4082 32.2265C48.5326 32.2883 48.5948 32.3502 48.5948 32.4738V34.0807H51.9533V34.0188Z" fill="#707070"/>
<path d="M26.9993 20.7622L14.2282 28.0056L0.64284 20.288L0 20.6328V26.2379L14.2282 34.3436L26.9993 27.1002V30.0751L14.2282 37.3186L0.64284 29.6008L0 29.9458V30.8944L14.2282 39L28.4993 30.8944V25.2893L27.8565 24.9443L14.2282 32.6621L1.49992 25.4186V22.4868L14.2282 29.6871L28.4993 21.5814V16.0626L27.7707 15.6746L14.2282 23.3491L2.18559 16.4937L14.2282 9.6815L24.1708 15.2865L25.0708 14.8122V14.1224L14.2282 8L0 16.0626V16.9249L14.2282 25.0306L26.9993 17.7872V20.7622Z" fill="#FF3621"/>
</g>
</svg>
