<svg width="163" height="48" viewBox="0 0 163 48" fill="none" xmlns="http://www.w3.org/2000/svg">
<g style="mix-blend-mode:luminosity">
<path d="M45.0508 14.0126H52.6729C57.5322 14.0126 61.5465 16.8242 61.5465 23.2437V24.5926C61.5465 31.0609 57.7923 33.9699 52.8192 33.9699H45.0508V14.0126ZM49.3088 17.6368V30.3295H52.5754C55.3382 30.3295 57.191 28.5256 57.191 24.5113V23.455C57.191 19.4407 55.2407 17.6368 52.4291 17.6368H49.3088ZM63.8055 17.8318H67.2184L67.7709 21.586C68.421 19.0344 70.0787 17.6693 73.0853 17.6693H74.1417V21.976H72.3865C68.9248 21.976 68.0797 23.1787 68.0797 26.5916V34.0187H63.8705V17.8318H63.8055ZM74.9868 26.2503V25.7952C74.9868 20.3834 78.4484 17.4255 83.1615 17.4255C87.9721 17.4255 91.3362 20.3834 91.3362 25.7952V26.2503C91.3362 31.5647 88.0696 34.425 83.1615 34.425C77.9446 34.3762 74.9868 31.5809 74.9868 26.2503ZM87.0294 26.2015V25.7952C87.0294 22.7886 85.518 20.9847 83.1127 20.9847C80.7562 20.9847 79.196 22.6424 79.196 25.7952V26.2015C79.196 29.1106 80.7075 30.7683 83.1127 30.7683C85.518 30.7196 87.0294 29.1106 87.0294 26.2015ZM93.5465 17.8318H97.0569L97.4632 20.8872C98.3083 18.8394 100.112 17.4255 102.778 17.4255C106.889 17.4255 109.603 20.3834 109.603 25.8602V26.3153C109.603 31.6297 106.597 34.4412 102.778 34.4412C100.226 34.4412 98.4708 33.2874 97.6094 31.4346V39.6094H93.4977L93.5465 17.8318ZM105.329 26.2015V25.844C105.329 22.6261 103.671 21.0334 101.461 21.0334C99.1046 21.0334 97.5444 22.8374 97.5444 25.844V26.1528C97.5444 29.0131 99.0559 30.8171 101.412 30.8171C103.834 30.7683 105.329 29.2244 105.329 26.2015ZM115.828 31.0283L115.47 33.9862H111.862V12.4199H115.974V20.6921C116.884 18.5794 118.688 17.4255 121.24 17.4255C125.108 17.4743 127.968 20.1396 127.968 25.5027V26.0065C127.968 31.3696 125.254 34.4412 121.142 34.4412C118.428 34.3762 116.673 33.1248 115.828 31.0283ZM123.645 26.0065V25.6002C123.645 22.6424 122.036 20.9847 119.777 20.9847C117.469 20.9847 115.86 22.8374 115.86 25.649V26.0065C115.86 29.0131 117.421 30.7683 119.728 30.7683C122.199 30.7683 123.645 29.2244 123.645 26.0065ZM129.772 26.2503V25.7952C129.772 20.3834 133.234 17.4255 137.947 17.4255C142.757 17.4255 146.121 20.3834 146.121 25.7952V26.2503C146.121 31.5647 142.806 34.425 137.947 34.425C132.73 34.3762 129.772 31.5809 129.772 26.2503ZM141.847 26.2015V25.7952C141.847 22.7886 140.336 20.9847 137.93 20.9847C135.574 20.9847 134.014 22.6424 134.014 25.7952V26.2015C134.014 29.1106 135.525 30.7683 137.93 30.7683C140.352 30.7196 141.847 29.1106 141.847 26.2015ZM151.631 25.6002L145.959 17.8318H150.818L154.085 22.6911L157.4 17.8318H162.211L156.458 25.5515L162.52 33.9862H157.758L154.052 28.6231L150.444 33.9862H145.471L151.631 25.6002Z" fill="#707070"/>
<path d="M18.8522 14.0132L9.42611 20.0264L18.8522 26.0396L9.42611 32.0528L0 26.0071L9.42611 19.9939L0 14.0132L9.42611 8L18.8522 14.0132ZM9.37735 33.9868L18.8035 27.9736L28.2296 33.9868L18.8035 40L9.37735 33.9868ZM18.8522 26.0071L28.2783 19.9939L18.8522 14.0132L28.2296 8L37.6557 14.0132L28.2296 20.0264L37.6557 26.0396L28.2296 32.0528L18.8522 26.0071Z" fill="#0061FF"/>
</g>
</svg>
