<svg width="40" height="40" viewBox="0 0 40 40" fill="none" xmlns="http://www.w3.org/2000/svg">
<path d="M20 0.5C30.7696 0.5 39.5 9.23045 39.5 20C39.5 30.7696 30.7696 39.5 20 39.5C9.23045 39.5 0.5 30.7696 0.5 20C0.5 9.23045 9.23045 0.5 20 0.5Z" stroke="#252B37"/>
<path d="M24.8941 21.3023L25.464 17.6812H21.9533V15.3275C21.9533 14.3373 22.4434 13.3698 24.0107 13.3698H25.6293V10.2863C24.6867 10.136 23.7343 10.0546 22.7797 10.043C19.8902 10.043 18.0037 11.78 18.0037 14.9201V17.6812H14.8008V21.3023H18.0037V30.0607H21.9533V21.3023H24.8941Z" fill="#FDFDFD"/>
</svg>
