<svg width="40" height="40" viewBox="0 0 40 40" fill="none" xmlns="http://www.w3.org/2000/svg">
<path d="M20 0.5C30.7696 0.5 39.5 9.23045 39.5 20C39.5 30.7696 30.7696 39.5 20 39.5C9.23045 39.5 0.5 30.7696 0.5 20C0.5 9.23045 9.23045 0.5 20 0.5Z" stroke="#DFDFDF"/>
<path d="M16.6712 20.0509C16.6712 18.2084 18.164 16.7143 20.006 16.7143C21.848 16.7143 23.3416 18.2084 23.3416 20.0509C23.3416 21.8934 21.848 23.3874 20.006 23.3874C18.164 23.3874 16.6712 21.8934 16.6712 20.0509ZM14.868 20.0509C14.868 22.8894 17.1683 25.1903 20.006 25.1903C22.8437 25.1903 25.144 22.8894 25.144 20.0509C25.144 17.2124 22.8437 14.9114 20.006 14.9114C17.1683 14.9114 14.868 17.2124 14.868 20.0509ZM24.1466 14.7077C24.1465 14.9452 24.2169 15.1774 24.3487 15.375C24.4806 15.5726 24.6681 15.7266 24.8874 15.8176C25.1068 15.9086 25.3482 15.9325 25.5811 15.8862C25.8141 15.84 26.0281 15.7257 26.1961 15.5578C26.3641 15.3899 26.4785 15.1759 26.5249 14.9429C26.5713 14.71 26.5477 14.4685 26.4569 14.249C26.3661 14.0294 26.2123 13.8418 26.0148 13.7098C25.8174 13.5777 25.5853 13.5072 25.3478 13.5071H25.3474C25.029 13.5072 24.7238 13.6337 24.4987 13.8588C24.2735 14.084 24.1469 14.3892 24.1466 14.7077ZM15.9636 28.1979C14.988 28.1534 14.4578 27.9909 14.1054 27.8536C13.6383 27.6716 13.3049 27.455 12.9545 27.1049C12.604 26.7548 12.3871 26.4217 12.206 25.9544C12.0687 25.6021 11.9062 25.0716 11.8618 24.0958C11.8133 23.0407 11.8036 22.7238 11.8036 20.051C11.8036 17.3781 11.8141 17.0621 11.8618 16.0062C11.9063 15.0303 12.07 14.5008 12.206 14.1475C12.3879 13.6802 12.6045 13.3468 12.9545 12.9962C13.3045 12.6457 13.6375 12.4287 14.1054 12.2476C14.4576 12.1101 14.988 11.9476 15.9636 11.9032C17.0183 11.8547 17.3351 11.845 20.006 11.845C22.6769 11.845 22.994 11.8555 24.0496 11.9032C25.0252 11.9477 25.5545 12.1114 25.9078 12.2476C26.3749 12.4287 26.7083 12.6461 27.0587 12.9962C27.4092 13.3463 27.6253 13.6802 27.8072 14.1475C27.9445 14.4998 28.107 15.0303 28.1514 16.0062C28.1999 17.0621 28.2096 17.3781 28.2096 20.051C28.2096 22.7238 28.1999 23.0399 28.1514 24.0958C28.1069 25.0716 27.9436 25.602 27.8072 25.9544C27.6253 26.4217 27.4087 26.7552 27.0587 27.1049C26.7087 27.4547 26.3749 27.6716 25.9078 27.8536C25.5556 27.991 25.0252 28.1535 24.0496 28.1979C22.9949 28.2464 22.6781 28.2561 20.006 28.2561C17.3339 28.2561 17.018 28.2464 15.9636 28.1979ZM15.8807 10.1026C14.8155 10.1511 14.0877 10.3201 13.452 10.5675C12.7937 10.823 12.2364 11.1658 11.6795 11.722C11.1226 12.2781 10.7808 12.8365 10.5254 13.495C10.278 14.1312 10.1091 14.8589 10.0606 15.9244C10.0113 16.9916 10 17.3328 10 20.0509C10 22.769 10.0113 23.1102 10.0606 24.1773C10.1091 25.2429 10.278 25.9705 10.5254 26.6068C10.7808 27.2649 11.1227 27.8239 11.6795 28.3798C12.2363 28.9357 12.7937 29.278 13.452 29.5343C14.0889 29.7817 14.8155 29.9506 15.8807 29.9992C16.9482 30.0477 17.2887 30.0598 20.006 30.0598C22.7233 30.0598 23.0644 30.0485 24.1313 29.9992C25.1966 29.9506 25.9239 29.7817 26.56 29.5343C27.2179 29.278 27.7756 28.936 28.3325 28.3798C28.8894 27.8236 29.2305 27.2649 29.4866 26.6068C29.734 25.9705 29.9037 25.2429 29.9514 24.1773C29.9999 23.1094 30.0112 22.769 30.0112 20.0509C30.0112 17.3328 29.9999 16.9916 29.9514 15.9244C29.9029 14.8588 29.734 14.1308 29.4866 13.495C29.2305 12.8369 28.8885 12.279 28.3325 11.722C27.7765 11.1649 27.2179 10.823 26.5608 10.5675C25.924 10.3201 25.1965 10.1503 24.1321 10.1026C23.0652 10.0541 22.7241 10.042 20.0068 10.042C17.2895 10.042 16.9482 10.0533 15.8807 10.1026Z" fill="#0A0D12"/>
</svg>
