<svg width="40" height="40" viewBox="0 0 40 40" fill="none" xmlns="http://www.w3.org/2000/svg">
<path d="M20 0.5C30.7696 0.5 39.5 9.23045 39.5 20C39.5 30.7696 30.7696 39.5 20 39.5C9.23045 39.5 0.5 30.7696 0.5 20C0.5 9.23045 9.23045 0.5 20 0.5Z" stroke="#252B37"/>
<path d="M15.3984 28.1056V17.3005H11.8101V28.1056H15.3988H15.3984ZM13.605 15.8255C14.8561 15.8255 15.6349 14.9958 15.6349 13.9589C15.6115 12.8983 14.8561 12.0918 13.6288 12.0918C12.4007 12.0918 11.5986 12.8983 11.5986 13.9588C11.5986 14.9957 12.3772 15.8254 13.5815 15.8254H13.6047L13.605 15.8255ZM17.3846 28.1056H20.9726V22.0722C20.9726 21.7497 20.996 21.4263 21.0908 21.196C21.3501 20.5505 21.9405 19.8823 22.9319 19.8823C24.23 19.8823 24.7496 20.8731 24.7496 22.3258V28.1056H28.3375V21.9103C28.3375 18.5916 26.5675 17.0472 24.2068 17.0472C22.2713 17.0472 21.4212 18.1299 20.949 18.8674H20.9729V17.3009H17.3848C17.4316 18.3145 17.3845 28.106 17.3845 28.106L17.3846 28.1056Z" fill="#FDFDFD"/>
</svg>
