<svg width="40" height="40" viewBox="0 0 40 40" fill="none" xmlns="http://www.w3.org/2000/svg">
<path d="M20 0.5C30.7696 0.5 39.5 9.23045 39.5 20C39.5 30.7696 30.7696 39.5 20 39.5C9.23045 39.5 0.5 30.7696 0.5 20C0.5 9.23045 9.23045 0.5 20 0.5Z" stroke="#DFDFDF"/>
<path d="M15.3974 28.1056V17.3005H11.8092V28.1056H15.3978H15.3974ZM13.604 15.8255C14.8551 15.8255 15.634 14.9958 15.634 13.9589C15.6105 12.8983 14.8551 12.0918 13.6278 12.0918C12.3997 12.0918 11.5977 12.8983 11.5977 13.9588C11.5977 14.9957 12.3762 15.8254 13.5805 15.8254H13.6038L13.604 15.8255ZM17.3836 28.1056H20.9716V22.0722C20.9716 21.7497 20.995 21.4263 21.0898 21.196C21.3491 20.5505 21.9395 19.8823 22.931 19.8823C24.229 19.8823 24.7486 20.8731 24.7486 22.3258V28.1056H28.3365V21.9103C28.3365 18.5916 26.5665 17.0472 24.2058 17.0472C22.2703 17.0472 21.4203 18.1299 20.948 18.8674H20.9719V17.3009H17.3838C17.4306 18.3145 17.3835 28.106 17.3835 28.106L17.3836 28.1056Z" fill="#0A0D12"/>
</svg>
