<svg width="159" height="36" viewBox="0 0 159 36" fill="none" xmlns="http://www.w3.org/2000/svg">
<path d="M19.5967 8.94287L7.06152 13.2231V24.7817L0 27.1929V8.45947L19.5967 1.76904V8.94287Z" fill="#FF623E"/>
<path fill-rule="evenodd" clip-rule="evenodd" d="M9.99023 14.9811L29.5872 8.29058V27.0241L9.99023 33.7146V14.9811Z" fill="#FF623E"/>
<path d="M46.1475 20.496L39.6195 10.128H43.3875L48.4515 18.432H46.2915L51.3555 10.128H55.0755L48.4755 20.496H46.1475ZM45.7155 27V18.744H49.0035V27H45.7155ZM58.8478 27.24C57.6798 27.24 56.6238 26.976 55.6798 26.448C54.7518 25.904 54.0078 25.176 53.4478 24.264C52.9038 23.336 52.6318 22.304 52.6318 21.168C52.6318 20.032 52.9038 19.016 53.4478 18.12C53.9918 17.208 54.7358 16.488 55.6798 15.96C56.6238 15.416 57.6718 15.144 58.8238 15.144C60.0078 15.144 61.0638 15.416 61.9918 15.96C62.9358 16.488 63.6798 17.208 64.2238 18.12C64.7678 19.016 65.0398 20.032 65.0398 21.168C65.0398 22.304 64.7678 23.336 64.2238 24.264C63.6798 25.176 62.9358 25.904 61.9918 26.448C61.0638 26.976 60.0158 27.24 58.8478 27.24ZM58.8238 24.312C59.4158 24.312 59.9358 24.184 60.3838 23.928C60.8478 23.656 61.1998 23.288 61.4398 22.824C61.6958 22.344 61.8238 21.8 61.8238 21.192C61.8238 20.584 61.6958 20.048 61.4398 19.584C61.1838 19.12 60.8318 18.76 60.3838 18.504C59.9358 18.232 59.4158 18.096 58.8238 18.096C58.2478 18.096 57.7358 18.232 57.2878 18.504C56.8398 18.76 56.4878 19.12 56.2318 19.584C55.9758 20.048 55.8478 20.584 55.8478 21.192C55.8478 21.8 55.9758 22.344 56.2318 22.824C56.4878 23.288 56.8398 23.656 57.2878 23.928C57.7358 24.184 58.2478 24.312 58.8238 24.312ZM72.0079 27.24C70.9839 27.24 70.0719 27.024 69.2719 26.592C68.4879 26.16 67.8719 25.56 67.4239 24.792C66.9759 24.024 66.7519 23.136 66.7519 22.128V15.408H69.9199V22.056C69.9199 22.536 69.9999 22.952 70.1599 23.304C70.3199 23.64 70.5599 23.896 70.8799 24.072C71.1999 24.248 71.5759 24.336 72.0079 24.336C72.6639 24.336 73.1759 24.136 73.5439 23.736C73.9119 23.336 74.0959 22.776 74.0959 22.056V15.408H77.2399V22.128C77.2399 23.152 77.0159 24.048 76.5679 24.816C76.1359 25.584 75.5199 26.184 74.7199 26.616C73.9359 27.032 73.0319 27.24 72.0079 27.24ZM79.7436 27V15.408H82.8876V27H79.7436ZM82.8876 20.592L81.6636 19.776C81.8076 18.352 82.2236 17.232 82.9116 16.416C83.5996 15.584 84.5916 15.168 85.8876 15.168C86.4476 15.168 86.9516 15.264 87.3996 15.456C87.8476 15.632 88.2556 15.928 88.6236 16.344L86.6556 18.6C86.4796 18.408 86.2636 18.264 86.0076 18.168C85.7676 18.072 85.4876 18.024 85.1676 18.024C84.4956 18.024 83.9436 18.24 83.5116 18.672C83.0956 19.088 82.8876 19.728 82.8876 20.592ZM95.1733 27V10.128H98.4373V27H95.1733ZM97.5733 27V24.096H106.165V27H97.5733ZM113.317 27.24C112.149 27.24 111.093 26.976 110.149 26.448C109.221 25.904 108.477 25.176 107.917 24.264C107.373 23.336 107.101 22.304 107.101 21.168C107.101 20.032 107.373 19.016 107.917 18.12C108.461 17.208 109.205 16.488 110.149 15.96C111.093 15.416 112.141 15.144 113.293 15.144C114.477 15.144 115.533 15.416 116.461 15.96C117.405 16.488 118.149 17.208 118.693 18.12C119.237 19.016 119.509 20.032 119.509 21.168C119.509 22.304 119.237 23.336 118.693 24.264C118.149 25.176 117.405 25.904 116.461 26.448C115.533 26.976 114.485 27.24 113.317 27.24ZM113.293 24.312C113.885 24.312 114.405 24.184 114.853 23.928C115.317 23.656 115.669 23.288 115.909 22.824C116.165 22.344 116.293 21.8 116.293 21.192C116.293 20.584 116.165 20.048 115.909 19.584C115.653 19.12 115.301 18.76 114.853 18.504C114.405 18.232 113.885 18.096 113.293 18.096C112.717 18.096 112.205 18.232 111.757 18.504C111.309 18.76 110.957 19.12 110.701 19.584C110.445 20.048 110.317 20.584 110.317 21.192C110.317 21.8 110.445 22.344 110.701 22.824C110.957 23.288 111.309 23.656 111.757 23.928C112.205 24.184 112.717 24.312 113.293 24.312ZM126.381 32.136C125.149 32.136 124.061 31.912 123.117 31.464C122.173 31.032 121.421 30.416 120.861 29.616L122.853 27.624C123.301 28.152 123.797 28.552 124.341 28.824C124.901 29.112 125.573 29.256 126.357 29.256C127.333 29.256 128.101 29.008 128.661 28.512C129.237 28.016 129.525 27.328 129.525 26.448V23.544L130.053 21L129.549 18.456V15.408H132.669V26.4C132.669 27.552 132.397 28.552 131.853 29.4C131.325 30.264 130.589 30.936 129.645 31.416C128.701 31.896 127.613 32.136 126.381 32.136ZM126.237 26.688C125.197 26.688 124.261 26.44 123.429 25.944C122.597 25.432 121.941 24.736 121.461 23.856C120.997 22.976 120.765 21.992 120.765 20.904C120.765 19.816 120.997 18.84 121.461 17.976C121.941 17.112 122.597 16.432 123.429 15.936C124.261 15.424 125.197 15.168 126.237 15.168C127.101 15.168 127.861 15.336 128.517 15.672C129.189 16.008 129.717 16.472 130.101 17.064C130.485 17.64 130.693 18.32 130.725 19.104V22.752C130.693 23.52 130.477 24.208 130.077 24.816C129.693 25.408 129.165 25.872 128.493 26.208C127.837 26.528 127.085 26.688 126.237 26.688ZM126.861 23.832C127.437 23.832 127.933 23.712 128.349 23.472C128.781 23.216 129.117 22.872 129.357 22.44C129.597 21.992 129.717 21.488 129.717 20.928C129.717 20.352 129.597 19.848 129.357 19.416C129.117 18.984 128.781 18.648 128.349 18.408C127.933 18.152 127.437 18.024 126.861 18.024C126.285 18.024 125.781 18.152 125.349 18.408C124.917 18.648 124.581 18.992 124.341 19.44C124.101 19.872 123.981 20.368 123.981 20.928C123.981 21.472 124.101 21.968 124.341 22.416C124.581 22.848 124.917 23.192 125.349 23.448C125.781 23.704 126.285 23.832 126.861 23.832ZM140.879 27.24C139.711 27.24 138.655 26.976 137.711 26.448C136.783 25.904 136.039 25.176 135.479 24.264C134.935 23.336 134.663 22.304 134.663 21.168C134.663 20.032 134.935 19.016 135.479 18.12C136.023 17.208 136.767 16.488 137.711 15.96C138.655 15.416 139.703 15.144 140.855 15.144C142.039 15.144 143.095 15.416 144.023 15.96C144.967 16.488 145.711 17.208 146.255 18.12C146.799 19.016 147.071 20.032 147.071 21.168C147.071 22.304 146.799 23.336 146.255 24.264C145.711 25.176 144.967 25.904 144.023 26.448C143.095 26.976 142.047 27.24 140.879 27.24ZM140.855 24.312C141.447 24.312 141.967 24.184 142.415 23.928C142.879 23.656 143.231 23.288 143.471 22.824C143.727 22.344 143.855 21.8 143.855 21.192C143.855 20.584 143.727 20.048 143.471 19.584C143.215 19.12 142.863 18.76 142.415 18.504C141.967 18.232 141.447 18.096 140.855 18.096C140.279 18.096 139.767 18.232 139.319 18.504C138.871 18.76 138.519 19.12 138.263 19.584C138.007 20.048 137.879 20.584 137.879 21.192C137.879 21.8 138.007 22.344 138.263 22.824C138.519 23.288 138.871 23.656 139.319 23.928C139.767 24.184 140.279 24.312 140.855 24.312Z" fill="black"/>
</svg>
