<svg width="40" height="40" viewBox="0 0 40 40" fill="none" xmlns="http://www.w3.org/2000/svg">
<path d="M20 0.5C30.7696 0.5 39.5 9.23045 39.5 20C39.5 30.7696 30.7696 39.5 20 39.5C9.23045 39.5 0.5 30.7696 0.5 20C0.5 9.23045 9.23045 0.5 20 0.5Z" stroke="#DFDFDF"/>
<path d="M26.2768 14.2524C26.1441 14.1838 26.0149 14.1086 25.8898 14.0271C25.5258 13.7865 25.192 13.503 24.8958 13.1826C24.1545 12.3344 23.8776 11.4739 23.7756 10.8715H23.7797C23.6945 10.3714 23.7298 10.0479 23.7351 10.0479H20.3587V23.1038C20.3587 23.2791 20.3587 23.4523 20.3513 23.6235C20.3513 23.6448 20.3492 23.6645 20.348 23.6874C20.348 23.6968 20.348 23.7067 20.346 23.7165C20.346 23.7189 20.346 23.7214 20.346 23.7239C20.3104 24.1923 20.1602 24.6448 19.9087 25.0416C19.6572 25.4384 19.312 25.7673 18.9035 25.9994C18.4778 26.2416 17.9963 26.3686 17.5065 26.368C15.9334 26.368 14.6584 25.0852 14.6584 23.5011C14.6584 21.9169 15.9334 20.6341 17.5065 20.6341C17.8043 20.6339 18.1002 20.6807 18.3834 20.773L18.3875 17.3351C17.5279 17.2241 16.6547 17.2924 15.823 17.5358C14.9912 17.7791 14.2188 18.1922 13.5547 18.7489C12.9727 19.2546 12.4834 19.8579 12.1089 20.5318C11.9664 20.7775 11.4286 21.7649 11.3635 23.3675C11.3226 24.2772 11.5957 25.2196 11.726 25.6091V25.6173C11.8079 25.8466 12.1253 26.6293 12.6426 27.2891C13.0597 27.8183 13.5525 28.2833 14.1051 28.6689V28.6607L14.1133 28.6689C15.7478 29.7796 17.5602 29.7067 17.5602 29.7067C17.8739 29.694 18.9248 29.7067 20.1183 29.1411C21.442 28.5141 22.1955 27.5799 22.1955 27.5799C22.677 27.0217 23.0598 26.3855 23.3276 25.6988C23.6331 24.8956 23.7351 23.9323 23.7351 23.5473V16.6209C23.776 16.6454 24.3216 17.0063 24.3216 17.0063C24.3216 17.0063 25.1075 17.51 26.3337 17.8381C27.2135 18.0715 28.3987 18.1207 28.3987 18.1207V14.7688C27.9834 14.8139 27.1402 14.6828 26.2768 14.2524Z" fill="#0A0D12"/>
</svg>
