<svg width="114" height="48" viewBox="0 0 114 48" fill="none" xmlns="http://www.w3.org/2000/svg">
<g style="mix-blend-mode:luminosity" clip-path="url(#clip0_21428_8653)">
<path d="M31.2904 31.0833C28.107 31.0833 25.9996 28.6718 25.4117 27.7377C26.166 21.8285 28.3733 19.9601 31.2904 19.9601C34.1744 19.9601 36.415 22.2195 36.415 25.5216C36.415 28.8239 34.1744 31.0833 31.2904 31.0833ZM31.2904 16.332C26.0995 16.332 23.1933 19.6451 22.3614 23.0559C21.4186 21.3179 20.7198 18.9934 20.1763 16.8317H12.9998V25.576C12.9998 28.7479 11.5246 31.0942 8.64064 31.0942C5.75673 31.0942 4.10403 28.7479 4.10403 25.576L4.1373 16.8317H0V25.576C0 28.1287 0.84299 30.4425 2.38477 32.0935C3.97093 33.7989 6.13386 34.6896 8.64064 34.6896C13.632 34.6896 17.115 30.9421 17.115 25.576V19.6994C17.6362 21.6329 18.8786 25.3479 21.2522 28.6067L19.0339 40.9791H23.2377L24.7018 32.213C25.1788 32.604 25.689 32.9516 26.2325 33.2667C27.6411 34.1357 29.2495 34.6245 30.9133 34.6788C30.9133 34.6788 31.1684 34.6896 31.3015 34.6896C36.4482 34.6896 40.5411 30.7901 40.5411 25.5216C40.5411 20.2534 36.4371 16.332 31.2904 16.332Z" fill="#14A800"/>
<path d="M90.7315 18.7014V16.8331H86.6719V34.137H90.787V27.3589C90.787 23.1877 91.1752 20.1896 96.8875 20.5807V16.6267C94.2254 16.4312 92.1513 16.9743 90.7315 18.7014Z" fill="#14A800"/>
<path d="M62.1602 16.834L59.1765 28.9348L55.9931 16.834H50.7577L47.5632 28.9348L44.5905 16.834H40.4199L44.9899 34.1489H49.9369L53.3754 21.8525L56.7806 34.1489H61.7276L66.5638 16.834H62.1602Z" fill="#14A800"/>
<path d="M75.6263 31.0942C72.698 31.0942 70.5018 28.8348 70.5018 25.5216C70.5018 22.2086 72.7092 19.9601 75.6263 19.9601C78.5103 19.9601 80.7509 22.2195 80.7509 25.5216C80.7509 28.8238 78.5103 31.0942 75.6263 31.0942ZM75.6263 16.332C70.4463 16.332 66.3867 20.2643 66.3867 25.5216C66.3867 30.7791 70.4463 34.6788 75.6263 34.6788C80.773 34.6788 84.866 30.7791 84.866 25.5216C84.866 20.2643 80.7841 16.332 75.6263 16.332Z" fill="#14A800"/>
<path d="M102.79 25.6312H103.744L109.49 34.1473H114.137L107.527 24.7078C110.732 23.4804 112.884 20.2759 112.884 16.8325H108.78C108.78 20.5692 105.774 21.9813 102.79 21.9813V10H98.6641V34.1473H102.779L102.79 25.6312Z" fill="#14A800"/>
</g>
<defs>
<clipPath id="clip0_21428_8653">
<rect width="114" height="48" fill="white"/>
</clipPath>
</defs>
</svg>
